<svg width="82" height="78" viewBox="0 0 82 78" fill="none" xmlns="http://www.w3.org/2000/svg">
<path d="M0 4.5C0 2.01472 2.01472 0 4.5 0H72.5C74.9853 0 77 2.01472 77 4.5C77 6.98528 74.9853 9 72.5 9H4.5C2.01472 9 0 6.98528 0 4.5Z" fill="#1677FF"/>
<path d="M0 19.5C0 17.0147 2.01472 15 4.5 15H72.5C74.9853 15 77 17.0147 77 19.5C77 21.9853 74.9853 24 72.5 24H4.5C2.01472 24 0 21.9853 0 19.5Z" fill="#1677FF"/>
<path d="M0 34.5C0 32.0147 2.01472 30 4.5 30H72.5C74.9853 30 77 32.0147 77 34.5C77 36.9853 74.9853 39 72.5 39H4.5C2.01472 39 0 36.9853 0 34.5Z" fill="#1677FF"/>
<path d="M0 49.5C0 47.0147 2.01472 45 4.5 45H34.5C36.9853 45 39 47.0147 39 49.5C39 51.9853 36.9853 54 34.5 54H4.5C2.01472 54 0 51.9853 0 49.5Z" fill="#1677FF"/>
<path d="M66.7198 73.2852C66.7198 73.2852 65.778 66.9382 63.1556 62.8074C59.3429 56.8018 51.5276 55.98 51.5276 55.98C51.5276 55.98 59.3609 56.5235 63.1556 50.5263C67.8288 43.1406 66.7198 37 66.7198 37C66.7198 37 67.071 42.711 69.8544 48.8516C72.6378 54.9921 81.114 55.98 81.114 55.98C81.114 55.98 75.2219 57.7833 70.9709 62.8074C66.7198 67.8315 66.7198 73.2852 66.7198 73.2852Z" fill="#1677FF"/>
<path d="M45.1924 77.3848C45.1924 77.3848 44.6139 71.4081 43.0028 68.8705C40.0219 64.1751 35.1153 63.1924 35.1153 63.1924C35.1153 63.1924 39.7376 63.1261 42.3169 59.6112C45.5257 55.2385 45.1924 49 45.1924 49C45.1924 49 45.7511 54.81 47.461 58.5823C49.1709 62.3547 55.2695 63.1924 55.2695 63.1924C55.2695 63.1924 50.6955 65.0982 48.1469 68.8705C45.5982 72.6428 45.1924 77.3848 45.1924 77.3848Z" fill="#0227CD"/>
<path d="M51.1924 59.2304C51.1924 59.2304 50.5558 52.6545 48.7833 49.8625C45.5035 44.6964 40.105 43.6152 40.105 43.6152C40.105 43.6152 45.1907 43.5422 48.0287 39.6749C51.5591 34.8639 51.1924 28 51.1924 28C51.1924 28 51.8071 34.3925 53.6884 38.543C55.5698 42.6935 62.2798 43.6152 62.2798 43.6152C62.2798 43.6152 57.2472 45.712 54.4431 49.8625C51.6389 54.013 51.1924 59.2304 51.1924 59.2304Z" fill="#0227CD"/>
<path d="M66.7198 37C66.2207 37.0307 66.2207 37.0308 66.2207 37.031L66.2208 37.0314L66.2208 37.0325L66.2211 37.0365L66.222 37.0506L66.2258 37.1031C66.2292 37.1487 66.2346 37.2154 66.2423 37.3019C66.257 37.4658 66.2803 37.7008 66.3157 37.998C66.3174 38.0303 66.319 38.0634 66.3205 38.0972C66.3261 38.2211 66.3304 38.3556 66.3327 38.5H54.2216C54.1947 38.4461 54.1688 38.3916 54.1438 38.3366C53.2288 36.3179 52.6134 33.7304 52.2267 31.6247C52.154 31.2292 52.0896 30.8518 52.033 30.5H72.5C74.7091 30.5 76.5 32.2909 76.5 34.5C76.5 36.7091 74.7091 38.5 72.5 38.5H67.3893C67.3599 38.2899 67.3352 38.0988 67.3145 37.9282C67.3139 37.9227 67.3132 37.9172 67.3125 37.9117C67.2965 37.6202 67.2744 37.3878 67.255 37.2205C67.2437 37.1238 67.2334 37.0489 67.2256 36.997L67.2235 36.9831C67.2206 36.9637 67.2181 36.9481 67.2161 36.9364L67.2133 36.9193L67.2124 36.9141L67.212 36.9123L67.2119 36.9117C67.2119 36.9114 67.2118 36.9111 66.7198 37ZM66.7198 37L67.2118 36.9111C67.1648 36.6506 66.9228 36.4719 66.6599 36.5036C66.397 36.5353 66.2045 36.7664 66.2207 37.0307L66.7198 37ZM56.0949 56.6763C55.6682 56.5085 55.256 56.3632 54.8657 56.2377C55.2401 56.1719 55.634 56.0896 56.0409 55.9869C58.5462 55.3548 61.5883 53.9384 63.5781 50.7936C65.6616 47.5007 66.6206 44.4447 67.0386 42.0428C67.5118 44.0674 68.251 46.5254 69.399 49.058C70.8667 52.2959 73.8188 54.145 76.3378 55.1809C77.4488 55.6378 78.4897 55.9425 79.308 56.1408C78.7652 56.3772 78.1154 56.6841 77.3996 57.0694C75.3597 58.1673 72.7675 59.91 70.5892 62.4845C68.4054 65.0653 67.3138 67.7562 66.7681 69.8015C66.7177 69.9904 66.6719 70.1738 66.6303 70.3512C66.5616 70.0692 66.4863 69.7731 66.4041 69.466C65.8363 67.3458 64.9295 64.6687 63.5777 62.5394C61.5936 59.4141 58.5797 57.6539 56.0949 56.6763ZM51.1687 55.6318C51.1605 55.5879 51.1521 55.5439 51.1437 55.4997C50.7635 53.5094 50.1485 51.0799 49.2054 49.5945C47.5063 46.9182 45.2602 45.303 43.4451 44.3581C43.0299 44.1419 42.6366 43.9605 42.2767 43.8091C42.5521 43.7449 42.845 43.6672 43.15 43.5731C44.837 43.0527 46.9276 42.0205 48.4318 39.9707C48.5455 39.8157 48.6554 39.6587 48.7614 39.5H53.6394C54.7879 41.3099 56.7879 42.4276 58.5072 43.1011C59.3342 43.425 60.1169 43.6543 60.7465 43.8113C60.2878 44.0586 59.738 44.3758 59.141 44.7629C57.5029 45.825 55.4829 47.4302 54.0288 49.5826C52.7058 51.5407 51.8978 53.7179 51.4099 55.4939C51.3171 55.5163 51.2337 55.5648 51.1687 55.6318ZM51.3707 32.4743C51.7498 34.3905 52.3144 36.6332 53.1226 38.5H49.3693C50.4807 36.489 51.0646 34.3108 51.3707 32.4743ZM50.4401 31.9588C50.1388 33.9557 49.5077 36.3752 48.2134 38.5H4.5C2.29086 38.5 0.5 36.7091 0.5 34.5C0.5 32.2909 2.29086 30.5 4.5 30.5H50.614C50.5747 30.9462 50.5188 31.4369 50.4401 31.9588ZM45.255 74.3187C45.235 74.209 45.2143 74.0978 45.1929 73.9854C44.8474 72.1767 44.2872 69.9607 43.4249 68.6025C41.8753 66.1615 39.8268 64.6886 38.1721 63.8272C37.8418 63.6553 37.5268 63.5074 37.2339 63.3809C37.4453 63.3289 37.667 63.2684 37.8962 63.1977C39.4351 62.7229 41.3452 61.7805 42.72 59.907C44.2462 57.8273 44.993 55.3607 45.3578 53.315C45.718 55.0829 46.2494 57.1206 47.0056 58.7888C47.9438 60.8585 50.053 62.0737 51.8241 62.7676C52.5291 63.0437 53.1987 63.2443 53.7517 63.3862C53.3555 63.6028 52.8919 63.8731 52.3919 64.1973C50.9004 65.1643 49.059 66.6273 47.7326 68.5906C46.44 70.5037 45.6872 72.6451 45.255 74.3187ZM4.5 0.5H72.5C74.7091 0.5 76.5 2.29086 76.5 4.5C76.5 6.70914 74.7091 8.5 72.5 8.5H4.5C2.29086 8.5 0.5 6.70914 0.5 4.5C0.5 2.29086 2.29086 0.5 4.5 0.5ZM4.5 15.5H72.5C74.7091 15.5 76.5 17.2909 76.5 19.5C76.5 21.7091 74.7091 23.5 72.5 23.5H4.5C2.29086 23.5 0.5 21.7091 0.5 19.5C0.5 17.2909 2.29086 15.5 4.5 15.5ZM4.5 45.5H34.5C36.7091 45.5 38.5 47.2909 38.5 49.5C38.5 51.7091 36.7091 53.5 34.5 53.5H4.5C2.29086 53.5 0.5 51.7091 0.5 49.5C0.5 47.2909 2.29086 45.5 4.5 45.5Z" stroke="white" stroke-linejoin="round"/>
</svg>
