<svg width="82" height="78" viewBox="0 0 82 78" fill="none" xmlns="http://www.w3.org/2000/svg">
<path d="M0 4.5C0 2.01472 2.01472 0 4.5 0H72.5C74.9853 0 77 2.01472 77 4.5C77 6.98528 74.9853 9 72.5 9H4.5C2.01472 9 0 6.98528 0 4.5Z" fill="white"/>
<path d="M0 19.5C0 17.0147 2.01472 15 4.5 15H72.5C74.9853 15 77 17.0147 77 19.5C77 21.9853 74.9853 24 72.5 24H4.5C2.01472 24 0 21.9853 0 19.5Z" fill="white"/>
<path d="M0 34.5C0 32.0147 2.01472 30 4.5 30H72.5C74.9853 30 77 32.0147 77 34.5C77 36.9853 74.9853 39 72.5 39H4.5C2.01472 39 0 36.9853 0 34.5Z" fill="white"/>
<path d="M0 49.5C0 47.0147 2.01472 45 4.5 45H34.5C36.9853 45 39 47.0147 39 49.5C39 51.9853 36.9853 54 34.5 54H4.5C2.01472 54 0 51.9853 0 49.5Z" fill="white"/>
<path d="M66.7198 73.2852C66.7198 73.2852 65.778 66.9382 63.1556 62.8074C59.3429 56.8018 51.5276 55.98 51.5276 55.98C51.5276 55.98 59.3609 56.5235 63.1556 50.5263C67.8288 43.1406 66.7198 37 66.7198 37C66.7198 37 67.071 42.711 69.8544 48.8516C72.6378 54.9921 81.114 55.98 81.114 55.98C81.114 55.98 75.2219 57.7833 70.9709 62.8074C66.7198 67.8315 66.7198 73.2852 66.7198 73.2852Z" fill="white"/>
<path d="M45.1924 77.3848C45.1924 77.3848 44.6139 71.4081 43.0028 68.8705C40.0219 64.1751 35.1153 63.1924 35.1153 63.1924C35.1153 63.1924 39.7376 63.1261 42.3169 59.6112C45.5257 55.2385 45.1924 49 45.1924 49C45.1924 49 45.7511 54.81 47.461 58.5823C49.1709 62.3547 55.2695 63.1924 55.2695 63.1924C55.2695 63.1924 50.6955 65.0982 48.1469 68.8705C45.5982 72.6428 45.1924 77.3848 45.1924 77.3848Z" fill="white"/>
<path d="M51.1924 59.2304C51.1924 59.2304 50.5558 52.6545 48.7833 49.8625C45.5035 44.6964 40.105 43.6152 40.105 43.6152C40.105 43.6152 45.1907 43.5422 48.0287 39.6749C51.5591 34.8639 51.1924 28 51.1924 28C51.1924 28 51.8071 34.3925 53.6884 38.543C55.5698 42.6935 62.2798 43.6152 62.2798 43.6152C62.2798 43.6152 57.2472 45.712 54.4431 49.8625C51.6389 54.013 51.1924 59.2304 51.1924 59.2304Z" fill="white"/>
</svg>
